<!--?xml version="1.0" encoding="UTF-8" standalone="no"?-->
<svg xmlns:dc="http://purl.org/dc/elements/1.1/" xmlns:cc="http://creativecommons.org/ns#" xmlns:rdf="http://www.w3.org/1999/02/22-rdf-syntax-ns#" xmlns:svg="http://www.w3.org/2000/svg" xmlns="http://www.w3.org/2000/svg" xmlns:sodipodi="http://sodipodi.sourceforge.net/DTD/sodipodi-0.dtd" xmlns:inkscape="http://www.inkscape.org/namespaces/inkscape" sodipodi:docname="ktjst.svg" inkscape:version="1.0 (4035a4fb49, 2020-05-01)" id="svg1936" version="1.1" viewBox="0 0 210 148" height="148mm" width="210mm" style="">
  <defs id="defs1930"></defs>
  <sodipodi:namedview units="mm" inkscape:window-maximized="0" inkscape:window-y="189" inkscape:window-x="130" inkscape:window-height="1040" inkscape:window-width="1271" showgrid="false" inkscape:document-rotation="0" inkscape:current-layer="text1940" inkscape:document-units="mm" inkscape:cy="342.2018" inkscape:cx="519.66031" inkscape:zoom="0.35" inkscape:pageshadow="2" inkscape:pageopacity="0.0" borderopacity="1.0" bordercolor="#666666" pagecolor="#ffffff" id="base"></sodipodi:namedview>
  <metadata id="metadata1933">
    <rdf:rdf>
      <cc:work rdf:about="">
        <dc:format>image/svg+xml</dc:format>
        <dc:type rdf:resource="http://purl.org/dc/dcmitype/StillImage"></dc:type>
        <dc:title></dc:title>
      </cc:work>
    </rdf:rdf>
  </metadata>
  <g id="layer1" inkscape:groupmode="layer" inkscape:label="Taso 1">
    <g style="font-style:normal;font-weight:normal;font-size:10.5833px;line-height:1.25;font-family:sans-serif;white-space:pre;inline-size:68.0622;fill:#000000;fill-opacity:1;stroke:none;stroke-width:0.264583" id="text1940" transform="matrix(3.9448537,0,0,4.5869811,-167.99502,-381.1132)" aria-label="KTJST">
      <path id="path1942" style="font-style:normal;font-variant:normal;font-weight:normal;font-stretch:normal;font-family:Impact;-inkscape-font-specification:Impact;fill:none;stroke:#000000;stroke-width:0.605145" d="m 56.351558,88.713951 -2.447688,10.054377 2.681286,12.213782 h -4.418028 l -1.726584,-9.54545 v 9.54545 H 46.164706 V 88.713951 h 4.275838 v 8.651437 l 1.899244,-8.651437 z" class="SJTHxosH_0"></path>
      <path id="path1944" style="font-style:normal;font-variant:normal;font-weight:normal;font-stretch:normal;font-family:Impact;-inkscape-font-specification:Impact;fill:none;stroke:#000000;stroke-width:0.605145" d="m 65.949342,88.713951 v 4.456376 H 63.410247 V 110.98211 H 59.134409 V 93.170327 h -2.528941 v -4.456376 z" class="SJTHxosH_1"></path>
      <path id="path1946" style="font-style:normal;font-variant:normal;font-weight:normal;font-stretch:normal;font-family:Impact;-inkscape-font-specification:Impact;fill:none;stroke:#000000;stroke-width:0.605145" d="m 71.220506,88.713951 v 14.882109 q 0,3.34229 -0.05079,4.30512 -0.05079,0.94902 -0.467195,1.71926 -0.406254,0.77026 -1.117201,1.07283 -0.700791,0.28884 -2.122685,0.28884 H 65.31964 v -3.89244 q 0.385944,0.0413 0.558602,0.0413 0.457037,0 0.721103,-0.3026 0.264065,-0.30261 0.304692,-0.74273 0.04062,-0.44015 0.04062,-1.70554 V 88.713951 Z" class="SJTHxosH_2"></path>
      <path id="path1948" style="font-style:normal;font-variant:normal;font-weight:normal;font-stretch:normal;font-family:Impact;-inkscape-font-specification:Impact;fill:none;stroke:#000000;stroke-width:0.605145" d="M 81.955805,95.453533 H 77.984659 V 93.80303 q 0,-1.155357 -0.152338,-1.471708 -0.152336,-0.316351 -0.50782,-0.316351 -0.38594,0 -0.589069,0.426388 -0.192982,0.426376 -0.192982,1.292899 0,1.114091 0.223441,1.678022 0.213284,0.563919 1.208611,1.361668 2.853944,2.29695 3.595358,3.768672 0.741417,1.47172 0.741417,4.74522 0,2.37951 -0.416412,3.50734 -0.406256,1.12787 -1.584395,1.89809 -1.178142,0.75648 -2.742226,0.75648 -1.716427,0 -2.935194,-0.88028 -1.208609,-0.88024 -1.584394,-2.24193 -0.375788,-1.36166 -0.375788,-3.86496 v -1.45794 h 3.971146 v 2.70959 q 0,1.25165 0.162498,1.60923 0.172659,0.35762 0.599227,0.35762 0.426569,0 0.629696,-0.45388 0.213283,-0.45388 0.213283,-1.34793 0,-1.96685 -0.396097,-2.57205 -0.406256,-0.60518 -2.000807,-2.02188 -1.594554,-1.430432 -2.11253,-2.076892 -0.517976,-0.64645 -0.863292,-1.78805 -0.335161,-1.141594 -0.335161,-2.915907 0,-2.558292 0.477351,-3.741154 0.487506,-1.182875 1.564083,-1.843071 1.076578,-0.673956 2.600034,-0.673956 1.665646,0 2.833632,0.728968 1.17814,0.72898 1.553926,1.843071 0.385942,1.100344 0.385942,3.754914 z" class="SJTHxosH_3"></path>
      <path id="path1950" style="font-style:normal;font-variant:normal;font-weight:normal;font-stretch:normal;font-family:Impact;-inkscape-font-specification:Impact;fill:none;stroke:#000000;stroke-width:0.605145" d="m 92.274692,88.713951 v 4.456376 H 89.735595 V 110.98211 H 85.459757 V 93.170327 h -2.528939 v -4.456376 z" class="SJTHxosH_4"></path>
    </g>
  </g>
<style data-made-with="vivus-instant">.SJTHxosH_0{stroke-dasharray:99 101;stroke-dashoffset:100;animation:SJTHxosH_draw 2000ms ease 0ms forwards;}.SJTHxosH_1{stroke-dasharray:64 66;stroke-dashoffset:65;animation:SJTHxosH_draw 2000ms ease 250ms forwards;}.SJTHxosH_2{stroke-dasharray:55 57;stroke-dashoffset:56;animation:SJTHxosH_draw 2000ms ease 500ms forwards;}.SJTHxosH_3{stroke-dasharray:88 90;stroke-dashoffset:89;animation:SJTHxosH_draw 2000ms ease 750ms forwards;}.SJTHxosH_4{stroke-dasharray:64 66;stroke-dashoffset:65;animation:SJTHxosH_draw 2000ms ease 1000ms forwards;}@keyframes SJTHxosH_draw{100%{stroke-dashoffset:0;}}@keyframes SJTHxosH_fade{0%{stroke-opacity:1;}94.44444444444444%{stroke-opacity:1;}100%{stroke-opacity:0;}}</style></svg>
